<svg width="351" height="55" viewBox="0 0 351 55" fill="none" xmlns="http://www.w3.org/2000/svg">
<path d="M10.2 34H25.3V41H0.5V34.5L15.5 12.9H0.5V5.9H25.3V12.4L10.2 34ZM30.1852 27C30.1852 24.1333 30.7185 21.6167 31.7852 19.45C32.8852 17.2833 34.3685 15.6167 36.2352 14.45C38.1018 13.2833 40.1852 12.7 42.4852 12.7C44.4518 12.7 46.1685 13.1 47.6352 13.9C49.1352 14.7 50.2852 15.75 51.0852 17.05V13.1H59.6352V41H51.0852V37.05C50.2518 38.35 49.0852 39.4 47.5852 40.2C46.1185 41 44.4018 41.4 42.4352 41.4C40.1685 41.4 38.1018 40.8167 36.2352 39.65C34.3685 38.45 32.8852 36.7667 31.7852 34.6C30.7185 32.4 30.1852 29.8667 30.1852 27ZM51.0852 27.05C51.0852 24.9167 50.4852 23.2333 49.2852 22C48.1185 20.7667 46.6852 20.15 44.9852 20.15C43.2852 20.15 41.8352 20.7667 40.6352 22C39.4685 23.2 38.8852 24.8667 38.8852 27C38.8852 29.1333 39.4685 30.8333 40.6352 32.1C41.8352 33.3333 43.2852 33.95 44.9852 33.95C46.6852 33.95 48.1185 33.3333 49.2852 32.1C50.4852 30.8667 51.0852 29.1833 51.0852 27.05ZM71.1207 10.2C69.6207 10.2 68.3874 9.76666 67.4207 8.9C66.4874 8 66.0207 6.9 66.0207 5.6C66.0207 4.26667 66.4874 3.16666 67.4207 2.3C68.3874 1.4 69.6207 0.949997 71.1207 0.949997C72.5874 0.949997 73.7874 1.4 74.7207 2.3C75.6874 3.16666 76.1707 4.26667 76.1707 5.6C76.1707 6.9 75.6874 8 74.7207 8.9C73.7874 9.76666 72.5874 10.2 71.1207 10.2ZM75.3707 13.1V41H66.8207V13.1H75.3707ZM99.5668 12.8C102.833 12.8 105.433 13.8667 107.367 16C109.333 18.1 110.317 21 110.317 24.7V41H101.817V25.85C101.817 23.9833 101.333 22.5333 100.367 21.5C99.4001 20.4667 98.1001 19.95 96.4668 19.95C94.8335 19.95 93.5335 20.4667 92.5668 21.5C91.6001 22.5333 91.1168 23.9833 91.1168 25.85V41H82.5668V13.1H91.1168V16.8C91.9835 15.5667 93.1501 14.6 94.6168 13.9C96.0835 13.1667 97.7335 12.8 99.5668 12.8ZM141.554 41.35C138.987 41.35 136.687 40.9333 134.654 40.1C132.621 39.2667 130.987 38.0333 129.754 36.4C128.554 34.7667 127.921 32.8 127.854 30.5H136.954C137.087 31.8 137.537 32.8 138.304 33.5C139.071 34.1667 140.071 34.5 141.304 34.5C142.571 34.5 143.571 34.2167 144.304 33.65C145.037 33.05 145.404 32.2333 145.404 31.2C145.404 30.3333 145.104 29.6167 144.504 29.05C143.937 28.4833 143.221 28.0167 142.354 27.65C141.521 27.2833 140.321 26.8667 138.754 26.4C136.487 25.7 134.637 25 133.204 24.3C131.771 23.6 130.537 22.5667 129.504 21.2C128.471 19.8333 127.954 18.05 127.954 15.85C127.954 12.5833 129.137 10.0333 131.504 8.2C133.871 6.33333 136.954 5.4 140.754 5.4C144.621 5.4 147.737 6.33333 150.104 8.2C152.471 10.0333 153.737 12.6 153.904 15.9H144.654C144.587 14.7667 144.171 13.8833 143.404 13.25C142.637 12.5833 141.654 12.25 140.454 12.25C139.421 12.25 138.587 12.5333 137.954 13.1C137.321 13.6333 137.004 14.4167 137.004 15.45C137.004 16.5833 137.537 17.4667 138.604 18.1C139.671 18.7333 141.337 19.4167 143.604 20.15C145.871 20.9167 147.704 21.65 149.104 22.35C150.537 23.05 151.771 24.0667 152.804 25.4C153.837 26.7333 154.354 28.45 154.354 30.55C154.354 32.55 153.837 34.3667 152.804 36C151.804 37.6333 150.337 38.9333 148.404 39.9C146.471 40.8667 144.187 41.35 141.554 41.35ZM158.916 27C158.916 24.1333 159.449 21.6167 160.516 19.45C161.616 17.2833 163.099 15.6167 164.966 14.45C166.832 13.2833 168.916 12.7 171.216 12.7C173.182 12.7 174.899 13.1 176.366 13.9C177.866 14.7 179.016 15.75 179.816 17.05V13.1H188.366V41H179.816V37.05C178.982 38.35 177.816 39.4 176.316 40.2C174.849 41 173.132 41.4 171.166 41.4C168.899 41.4 166.832 40.8167 164.966 39.65C163.099 38.45 161.616 36.7667 160.516 34.6C159.449 32.4 158.916 29.8667 158.916 27ZM179.816 27.05C179.816 24.9167 179.216 23.2333 178.016 22C176.849 20.7667 175.416 20.15 173.716 20.15C172.016 20.15 170.566 20.7667 169.366 22C168.199 23.2 167.616 24.8667 167.616 27C167.616 29.1333 168.199 30.8333 169.366 32.1C170.566 33.3333 172.016 33.95 173.716 33.95C175.416 33.95 176.849 33.3333 178.016 32.1C179.216 30.8667 179.816 29.1833 179.816 27.05ZM193.851 27C193.851 24.1333 194.385 21.6167 195.451 19.45C196.551 17.2833 198.035 15.6167 199.901 14.45C201.768 13.2833 203.851 12.7 206.151 12.7C207.985 12.7 209.651 13.0833 211.151 13.85C212.685 14.6167 213.885 15.65 214.751 16.95V4H223.301V41H214.751V37C213.951 38.3333 212.801 39.4 211.301 40.2C209.835 41 208.118 41.4 206.151 41.4C203.851 41.4 201.768 40.8167 199.901 39.65C198.035 38.45 196.551 36.7667 195.451 34.6C194.385 32.4 193.851 29.8667 193.851 27ZM214.751 27.05C214.751 24.9167 214.151 23.2333 212.951 22C211.785 20.7667 210.351 20.15 208.651 20.15C206.951 20.15 205.501 20.7667 204.301 22C203.135 23.2 202.551 24.8667 202.551 27C202.551 29.1333 203.135 30.8333 204.301 32.1C205.501 33.3333 206.951 33.95 208.651 33.95C210.351 33.95 211.785 33.3333 212.951 32.1C214.151 30.8667 214.751 29.1833 214.751 27.05ZM228.787 27C228.787 24.1333 229.32 21.6167 230.387 19.45C231.487 17.2833 232.97 15.6167 234.837 14.45C236.703 13.2833 238.787 12.7 241.087 12.7C243.053 12.7 244.77 13.1 246.237 13.9C247.737 14.7 248.887 15.75 249.687 17.05V13.1H258.237V41H249.687V37.05C248.853 38.35 247.687 39.4 246.187 40.2C244.72 41 243.003 41.4 241.037 41.4C238.77 41.4 236.703 40.8167 234.837 39.65C232.97 38.45 231.487 36.7667 230.387 34.6C229.32 32.4 228.787 29.8667 228.787 27ZM249.687 27.05C249.687 24.9167 249.087 23.2333 247.887 22C246.72 20.7667 245.287 20.15 243.587 20.15C241.887 20.15 240.437 20.7667 239.237 22C238.07 23.2 237.487 24.8667 237.487 27C237.487 29.1333 238.07 30.8333 239.237 32.1C240.437 33.3333 241.887 33.95 243.587 33.95C245.287 33.95 246.72 33.3333 247.887 32.1C249.087 30.8667 249.687 29.1833 249.687 27.05ZM263.722 27.1C263.722 24.3333 264.289 21.8667 265.422 19.7C266.589 17.5333 268.139 15.85 270.072 14.65C272.039 13.4167 274.172 12.8 276.472 12.8C278.239 12.8 279.822 13.1167 281.222 13.75C282.622 14.35 283.756 15.2 284.622 16.3V13.1H293.172V54.3H284.622V37.5C283.656 38.6667 282.472 39.6 281.072 40.3C279.706 41 278.139 41.35 276.372 41.35C274.106 41.35 272.006 40.75 270.072 39.55C268.139 38.35 266.589 36.6667 265.422 34.5C264.289 32.3333 263.722 29.8667 263.722 27.1ZM284.622 27.05C284.622 25.55 284.322 24.3 283.722 23.3C283.156 22.2667 282.406 21.5 281.472 21C280.539 20.4667 279.556 20.2 278.522 20.2C277.522 20.2 276.556 20.4667 275.622 21C274.689 21.5 273.922 22.2667 273.322 23.3C272.722 24.3333 272.422 25.6 272.422 27.1C272.422 28.6 272.722 29.8667 273.322 30.9C273.922 31.9 274.689 32.6667 275.622 33.2C276.556 33.7 277.522 33.95 278.522 33.95C279.522 33.95 280.489 33.7 281.422 33.2C282.389 32.6667 283.156 31.8833 283.722 30.85C284.322 29.8167 284.622 28.55 284.622 27.05ZM298.658 27C298.658 24.1333 299.191 21.6167 300.258 19.45C301.358 17.2833 302.841 15.6167 304.708 14.45C306.574 13.2833 308.658 12.7 310.958 12.7C312.924 12.7 314.641 13.1 316.108 13.9C317.608 14.7 318.758 15.75 319.558 17.05V13.1H328.108V41H319.558V37.05C318.724 38.35 317.558 39.4 316.058 40.2C314.591 41 312.874 41.4 310.908 41.4C308.641 41.4 306.574 40.8167 304.708 39.65C302.841 38.45 301.358 36.7667 300.258 34.6C299.191 32.4 298.658 29.8667 298.658 27ZM319.558 27.05C319.558 24.9167 318.958 23.2333 317.758 22C316.591 20.7667 315.158 20.15 313.458 20.15C311.758 20.15 310.308 20.7667 309.108 22C307.941 23.2 307.358 24.8667 307.358 27C307.358 29.1333 307.941 30.8333 309.108 32.1C310.308 33.3333 311.758 33.95 313.458 33.95C315.158 33.95 316.591 33.3333 317.758 32.1C318.958 30.8667 319.558 29.1833 319.558 27.05ZM350.843 33.75V41H346.493C343.393 41 340.977 40.25 339.243 38.75C337.51 37.2167 336.643 34.7333 336.643 31.3V20.2H333.243V13.1H336.643V6.3H345.193V13.1H350.793V20.2H345.193V31.4C345.193 32.2333 345.393 32.8333 345.793 33.2C346.193 33.5667 346.86 33.75 347.793 33.75H350.843Z" fill="#6070FF"/>
</svg>
